<svg version="1.1" id="Layer_1" xmlns="http://www.w3.org/2000/svg" xmlns:xlink="http://www.w3.org/1999/xlink" x="0px" y="0px"
	 viewBox="0 0 1000 1000" style="enable-background:new 0 0 1000 1000;" xml:space="preserve">
<style type="text/css">
	.st0{fill-rule:evenodd;clip-rule:evenodd;}
</style>
<g>
	<path class="st0" d="M423.4,724.4v-55.8l-53.4-19.3v49.3L423.4,724.4L423.4,724.4z M370.1,710.1v48.8l53.4,32.2v-55.3L370.1,710.1
		L370.1,710.1z M360.1,752.9v-47.6l-46.8-22.6v42L360.1,752.9L360.1,752.9z M505,834.2l61.6-37.1v-56.4L505,770.3V834.2L505,834.2z
		 M505,758.9l61.6-29.7v-57L505,694.5V758.9L505,758.9z M505,683.6l61.6-22.3V604L505,618.8V683.6L505,683.6z M505,608.2l61.6-14.8
		v-57.6l-61.6,7.4V608.2L505,608.2z M505,532.7l61.6-7.4v-57.7H505V532.7L505,532.7z M505,457.2h61.6v-57.7L505,392V457.2L505,457.2
		z M505,305.9l61.6,14.8v-57.4L505,241.1V305.9L505,305.9z M629.9,346.7l-53.4-12.9v56.4l53.4,6.4V346.7L629.9,346.7z M738.3,362.2
		v-36.7l-41.5-15v41.7L738.3,362.2L738.3,362.2z M785.5,457.2v-31.3l-37.2-4.5v35.8H785.5L785.5,457.2z M686.8,457.2v-43.2
		l-46.8-5.6v48.9H686.8L686.8,457.2z M629.9,467.5h-53.4v56.5l53.4-6.4V467.5L629.9,467.5z M686.8,467.5h-46.8v48.9l46.8-5.7V467.5
		L686.8,467.5z M785.5,498.9v-31.3h-37.2v35.8L785.5,498.9L785.5,498.9z M785.5,540.5v-31.2l-37.2,4.5v35.7L785.5,540.5L785.5,540.5
		z M738.3,551.9V515l-41.5,5v41.9L738.3,551.9L738.3,551.9z M686.8,564.3v-43.1l-46.8,5.6v48.8L686.8,564.3L686.8,564.3z M629.9,578
		v-50l-53.4,6.4v56.4L629.9,578L629.9,578z M629.9,588.7l-53.4,12.9v56.2l53.4-19.3V588.7L629.9,588.7z M686.8,575l-46.8,11.3v48.5
		l46.8-16.9V575L686.8,575z M738.3,562.5l-41.5,10v41.7l41.5-15V562.5L738.3,562.5z M785.5,582.1v-31l-37.2,9v35.4L785.5,582.1
		L785.5,582.1z M785.5,623.6v-30.6l-37.2,13.4v35L785.5,623.6L785.5,623.6z M738.3,646.4v-36.3l-41.5,15v41.3L738.3,646.4
		L738.3,646.4z M696.8,718.6l41.5-25.1v-35.7l-41.5,20V718.6L696.8,718.6z M748.3,687.5l37.2-22.4V635L748.3,653V687.5L748.3,687.5z
		 M639.9,752.9l46.8-28.2v-42l-46.8,22.6V752.9L639.9,752.9z M686.8,671.2v-42.5l-46.8,16.9v48.1L686.8,671.2L686.8,671.2z
		 M629.9,698.7v-49.3l-53.4,19.3v55.8L629.9,698.7L629.9,698.7z M629.9,758.9v-48.8l-53.4,25.7v55.3L629.9,758.9L629.9,758.9z
		 M433.4,797.1l61.6,37.1v-63.9l-61.6-29.7V797.1L433.4,797.1z M433.4,729.2l61.6,29.7v-64.4l-61.6-22.3V729.2L433.4,729.2z
		 M433.4,661.3l61.6,22.3v-64.8L433.4,604V661.3L433.4,661.3z M433.4,593.3l61.6,14.8v-65l-61.6-7.4V593.3L433.4,593.3z
		 M433.4,525.3l61.6,7.4v-65.2h-61.6V525.3L433.4,525.3z M433.4,457.2H495V392l-61.6,7.4V457.2L433.4,457.2z M433.4,389l61.6-7.4
		v-65l-61.6,14.8V389L433.4,389z M433.4,320.8l61.6-14.8v-64.8l-61.6,22.3V320.8L433.4,320.8z M433.4,252.4l61.6-22.3v-64.4
		l-61.6,29.7V252.4L433.4,252.4z M360.1,338.4v-48.5l-46.8,16.9v42.9L360.1,338.4L360.1,338.4z M370.1,396.6l53.4-6.4v-56.4
		l-53.4,12.9V396.6L370.1,396.6z M214.5,342.6v31l37.2-9v-35.4L214.5,342.6L214.5,342.6z M261.7,420.1v37h41.5v-42L261.7,420.1
		L261.7,420.1z M313.2,413.9v43.2h46.8v-48.9L313.2,413.9L313.2,413.9z M423.4,524.1v-56.5h-53.4v50.1L423.4,524.1L423.4,524.1z
		 M360.1,516.4v-48.9h-46.8v43.2L360.1,516.4L360.1,516.4z M214.5,467.5v31.3l37.2,4.5v-35.8H214.5L214.5,467.5z M214.5,509.3v31.2
		l37.2,9v-35.7L214.5,509.3L214.5,509.3z M261.7,515v36.9l41.5,10V520L261.7,515L261.7,515z M313.2,521.2v43.1l46.8,11.3v-48.8
		L313.2,521.2L313.2,521.2z M370.1,528.1v50l53.4,12.9v-56.4L370.1,528.1L370.1,528.1z M370.1,638.4l53.4,19.3v-56.2l-53.4-12.9
		V638.4L370.1,638.4z M313.2,617.8l46.8,16.9v-48.5L313.2,575V617.8L313.2,617.8z M261.7,599.2l41.5,15v-41.7l-41.5-10V599.2
		L261.7,599.2z M214.5,551.2v31l37.2,13.4v-35.4L214.5,551.2L214.5,551.2z M214.5,593.1v30.6l37.2,17.9v-35L214.5,593.1L214.5,593.1
		z M261.7,610.1v36.3l41.5,20v-41.3L261.7,610.1L261.7,610.1z M261.7,693.5l41.5,25.1v-40.7l-41.5-20V693.5L261.7,693.5z
		 M214.5,665.1l37.2,22.4V653L214.5,635V665.1L214.5,665.1z M360.1,693.8v-48.1l-46.8-16.9v42.5L360.1,693.8L360.1,693.8z"/>
</g>
</svg>
