<svg version="1.1" id="Layer_1" xmlns="http://www.w3.org/2000/svg" xmlns:xlink="http://www.w3.org/1999/xlink" x="0px" y="0px"
	 viewBox="0 0 755.5 365.4" style="enable-background:new 0 0 755.5 365.4;" xml:space="preserve">
<style type="text/css">
	.st0{fill-rule:evenodd;clip-rule:evenodd;}
</style>
<g>
	<path class="loader-blocks" d="M354.6,199.8v-16.5l-15.8-5.7v14.6L354.6,199.8L354.6,199.8z M338.9,195.5V210l15.8,9.5v-16.3L338.9,195.5
		L338.9,195.5z M335.9,208.2v-14.1l-13.9-6.7v12.4L335.9,208.2L335.9,208.2z M378.8,232.3l18.2-11v-16.7l-18.2,8.8V232.3
		L378.8,232.3z M378.8,210l18.2-8.8v-16.8l-18.2,6.6V210L378.8,210z M378.8,187.7l18.2-6.6v-17l-18.2,4.4V187.7L378.8,187.7z
		 M378.8,165.4L397,161v-17l-18.2,2.2V165.4L378.8,165.4z M378.8,143.1l18.2-2.2v-17.1h-18.2V143.1L378.8,143.1z M378.8,120.7H397
		v-17.1l-18.2-2.2V120.7L378.8,120.7z M378.8,76l18.2,4.4v-17l-18.2-6.6V76L378.8,76z M415.7,88.1l-15.8-3.8v16.7l15.8,1.9V88.1
		L415.7,88.1z M447.8,92.7V81.8l-12.3-4.4v12.3L447.8,92.7L447.8,92.7z M461.7,120.7v-9.3l-11-1.3v10.6H461.7L461.7,120.7z
		 M432.5,120.7V108l-13.9-1.7v14.5H432.5L432.5,120.7z M415.7,123.8l-15.8,0v16.7l15.8-1.9V123.8L415.7,123.8z M432.5,123.8h-13.9
		v14.5l13.9-1.7V123.8L432.5,123.8z M461.7,133.1v-9.3h-11v10.6L461.7,133.1L461.7,133.1z M461.7,145.4v-9.2l-11,1.3V148
		L461.7,145.4L461.7,145.4z M447.8,148.8v-10.9l-12.3,1.5v12.4L447.8,148.8L447.8,148.8z M432.5,152.4v-12.8l-13.9,1.7v14.4
		L432.5,152.4L432.5,152.4z M415.7,156.5v-14.8l-15.8,1.9v16.7L415.7,156.5L415.7,156.5z M415.7,159.6l-15.8,3.8V180l15.8-5.7V159.6
		L415.7,159.6z M432.5,155.6l-13.9,3.3v14.3l13.9-5V155.6L432.5,155.6z M447.8,151.9l-12.3,3v12.3l12.3-4.4V151.9L447.8,151.9z
		 M461.7,157.7v-9.2l-11,2.7v10.5L461.7,157.7L461.7,157.7z M461.7,170v-9l-11,4v10.4L461.7,170L461.7,170z M447.8,176.7V166
		l-12.3,4.4v12.2L447.8,176.7L447.8,176.7z M435.5,198.1l12.3-7.4v-10.6l-12.3,5.9V198.1L435.5,198.1z M450.7,188.9l11-6.6v-8.9
		l-11,5.3V188.9L450.7,188.9z M418.7,208.2l13.9-8.4v-12.4l-13.9,6.7V208.2L418.7,208.2z M432.5,184.1v-12.6l-13.9,5v14.2
		L432.5,184.1L432.5,184.1z M415.7,192.2v-14.6l-15.8,5.7v16.5L415.7,192.2L415.7,192.2z M415.7,210v-14.4l-15.8,7.6v16.3L415.7,210
		L415.7,210z M357.6,221.3l18.2,11v-18.9l-18.2-8.8V221.3L357.6,221.3z M357.6,201.2l18.2,8.8v-19l-18.2-6.6V201.2L357.6,201.2z
		 M357.6,181.1l18.2,6.6v-19.2l-18.2-4.4V181.1L357.6,181.1z M357.6,161l18.2,4.4v-19.2l-18.2-2.2V161L357.6,161z M357.6,140.9
		l18.2,2.2v-19.3h-18.2V140.9L357.6,140.9z M357.6,120.7h18.2v-19.3l-18.2,2.2V120.7L357.6,120.7z M357.6,100.6l18.2-2.2V79.2
		l-18.2,4.4V100.6L357.6,100.6z M357.6,80.4l18.2-4.4V56.8l-18.2,6.6V80.4L357.6,80.4z M357.6,60.2l18.2-6.6v-19l-18.2,8.8V60.2
		L357.6,60.2z M335.9,85.6V71.3l-13.9,5V89L335.9,85.6L335.9,85.6z M338.9,102.8l15.8-1.9V84.3l-15.8,3.8V102.8L338.9,102.8z
		 M292.9,86.9V96l11-2.7V82.9L292.9,86.9L292.9,86.9z M306.8,109.8v11h12.3v-12.4L306.8,109.8L306.8,109.8z M322,108v12.8h13.9
		v-14.5L322,108L322,108z M354.6,140.5v-16.7h-15.8v14.8L354.6,140.5L354.6,140.5z M335.9,138.3v-14.5H322v12.8L335.9,138.3
		L335.9,138.3z M292.9,123.8v9.3l11,1.3v-10.6H292.9L292.9,123.8z M292.9,136.2v9.2l11,2.7v-10.6L292.9,136.2L292.9,136.2z
		 M306.8,137.8v10.9l12.3,3v-12.4L306.8,137.8L306.8,137.8z M322,139.7v12.8l13.9,3.3v-14.4L322,139.7L322,139.7z M338.9,141.7v14.8
		l15.8,3.8v-16.7L338.9,141.7L338.9,141.7z M338.9,174.3l15.8,5.7v-16.6l-15.8-3.8V174.3L338.9,174.3z M322,168.3l13.9,5v-14.3
		l-13.9-3.3V168.3L322,168.3z M306.8,162.7l12.3,4.4v-12.3l-12.3-3V162.7L306.8,162.7z M292.9,148.5v9.2l11,4v-10.5L292.9,148.5
		L292.9,148.5z M292.9,160.9v9l11,5.3v-10.4L292.9,160.9L292.9,160.9z M306.8,166v10.7l12.3,5.9v-12.2L306.8,166L306.8,166z
		 M306.8,190.6l12.3,7.4V186l-12.3-5.9V190.6L306.8,190.6z M292.9,182.2l11,6.6v-10.2l-11-5.3V182.2L292.9,182.2z M335.9,190.7
		v-14.2l-13.9-5v12.6L335.9,190.7L335.9,190.7z"/>
	<g>
		<path class="colossus-loader-letter colSVG-1" d="M39.6,272.5c-4.1,3.9-6,8.6-6,14.2v24.6c0,5.6,1.9,10.4,6,14.2c4.1,3.9,9,5.7,14.6,5.7h50.5v-13H54.2
			c-4.5,0-7.6-2.1-7.6-6.9v-24.5c0-4.8,3-6.9,7.6-6.9h50.5v-13H54.2C48.6,266.8,43.7,268.7,39.6,272.5z"/>
		<polygon class="colossus-loader-letter colSVG-3" points="220.8,266.8 207.8,266.8 207.8,331.2 272.3,331.2 272.3,318.2 220.8,318.2 		"/>
		<path class="colossus-loader-letter colSVG-2" d="M175.9,266.8h-39.3c-5.6,0-10.5,1.8-14.6,5.7c-4.1,3.9-6,8.6-6,14.2v24.6c0,5.6,1.9,10.4,6,14.2
			c4.1,3.9,9,5.7,14.6,5.7h39.3c5.6,0,10.5-1.8,14.6-5.7c4.1-3.9,6-8.6,6-14.2v-24.6c0-5.6-1.9-10.4-6-14.2
			C186.4,268.7,181.5,266.8,175.9,266.8z M183.5,311.3c0,4.8-3,6.9-7.6,6.9h-39.3c-4.5,0-7.6-2.1-7.6-6.9v-24.5c0-4.8,3-6.9,7.6-6.9
			h39.3c4.5,0,7.6,2.1,7.6,6.9V311.3z"/>
		<path class="colossus-loader-letter colSVG-4" d="M343.4,266.8h-39.3c-5.6,0-10.5,1.8-14.6,5.7c-4.1,3.9-6,8.6-6,14.2v24.6c0,5.6,1.9,10.4,6,14.2
			c4.1,3.9,9,5.7,14.6,5.7h39.3c5.6,0,10.5-1.8,14.6-5.7c4.1-3.9,6-8.6,6-14.2v-24.6c0-5.6-1.9-10.4-6-14.2
			C354,268.7,349.1,266.8,343.4,266.8z M351,311.3c0,4.8-3,6.9-7.6,6.9h-39.3c-4.5,0-7.6-2.1-7.6-6.9v-24.5c0-4.8,3-6.9,7.6-6.9
			h39.3c4.5,0,7.6,2.1,7.6,6.9V311.3z"/>
		<path class="colossus-loader-letter colSVG-7" d="M619.3,311.8c0,3-0.9,6.4-4.6,6.4h-44.4c-3.7,0-4.7-3.3-4.7-6.4v-22.1v-3.4v-6.3v-3.4v-9.6h-13v9.6v3.4v6.3
			v3.4v22.1c0,5.2,1.6,9.8,5,13.7c3.4,3.9,7.6,5.7,12.8,5.7h44.3c5.1,0,9.3-1.8,12.7-5.7c3.4-3.9,5-8.5,5-13.7v-44.9h-13V311.8z"/>
		<path class="colossus-loader-letter colSVG-8" d="M716.2,298.3c-3.4-3.9-7.7-5.8-12.9-5.8h-42.2c-3.6,0-4.6-3.2-4.6-6.3c0-3,0.9-6.4,4.6-6.4h56.7v-13h-56.5
			c-5.1,0-9.3,1.8-12.7,5.7c-3.4,3.9-5,8.5-5,13.7c0,5.1,1.5,9.6,4.9,13.5c3.4,3.9,7.7,5.8,12.8,5.8h42.1c3.6,0,4.6,3.3,4.6,6.3
			c0,3-0.9,6.3-4.6,6.3h-56.5v13h56.5c5.2,0,9.4-1.9,12.8-5.8c3.3-3.9,4.8-8.5,4.8-13.6C721,306.8,719.5,302.2,716.2,298.3z"/>
		<path class="colossus-loader-letter colSVG-6" d="M523.7,292.5h-42.2c-3.6,0-4.6-3.2-4.6-6.3c0-3,0.9-6.4,4.6-6.4h56.7v-13h-56.5c-5.1,0-9.3,1.8-12.7,5.7
			c-3.4,3.9-5,8.5-5,13.7c0,5.1,1.5,9.6,4.9,13.5c3.4,3.9,7.7,5.8,12.8,5.8h42.1c3.6,0,4.6,3.3,4.6,6.3c0,3-0.9,6.3-4.6,6.3h-56.5
			v13h56.5c5.2,0,9.4-1.9,12.8-5.8c3.3-3.9,4.8-8.5,4.8-13.6c0-5.1-1.5-9.7-4.8-13.6C533.1,294.4,528.9,292.5,523.7,292.5z"/>
		<path class="colossus-loader-letter colSVG-5" d="M435,292.5h-42.2c-3.6,0-4.6-3.2-4.6-6.3c0-3,0.9-6.4,4.6-6.4h56.7v-13H393c-5.1,0-9.3,1.8-12.7,5.7
			c-3.4,3.9-5,8.5-5,13.7c0,5.1,1.5,9.6,4.9,13.5c3.4,3.9,7.7,5.8,12.8,5.8h42.1c3.6,0,4.6,3.3,4.6,6.3c0,3-0.9,6.3-4.6,6.3h-56.5
			v13h56.5c5.2,0,9.4-1.9,12.8-5.8c3.3-3.9,4.8-8.5,4.8-13.6c0-5.1-1.5-9.7-4.8-13.6C444.5,294.4,440.2,292.5,435,292.5z"/>
	</g>
</g>
</svg>
